<svg width="1024" height="1024" viewBox="0 0 1024 1024" fill="none" xmlns="http://www.w3.org/2000/svg">
<path d="M512 413.098L716.827 152H872L589.586 512L872 872H716.827L512 610.901L307.173 872H152L434.413 512L152 152H307.173L512 413.098Z" fill="white"/>
<path fill-rule="evenodd" clip-rule="evenodd" d="M872 152V872H152V152H872ZM185.009 838.991H380.997V643.003H185.009V838.991ZM643.003 838.991H838.991V643.003H643.003V838.991ZM414.006 838.991H609.994V643.003H414.006V838.991ZM185.009 609.994H380.997V414.006H185.009V609.994ZM643.003 609.994H838.991V414.006H643.003V609.994ZM414.006 609.994H609.994V414.006H414.006V609.994ZM185.009 380.997H380.997V185.009H185.009V380.997ZM643.003 380.997H838.991V185.009H643.003V380.997ZM414.006 380.997H609.994V185.009H414.006V380.997Z" fill="white"/>
</svg>
