<svg width="163" height="40" viewBox="0 0 163 40" fill="none" xmlns="http://www.w3.org/2000/svg">
<rect width="40" height="40" rx="4" fill="#EC8013"/>
<path d="M15.056 21V12.6H18.764C19.34 12.6 19.828 12.684 20.228 12.852C20.628 13.012 20.928 13.248 21.128 13.56C21.336 13.864 21.44 14.232 21.44 14.664C21.44 15.144 21.32 15.548 21.08 15.876C20.848 16.204 20.508 16.424 20.06 16.536L20.036 16.308C20.412 16.388 20.736 16.528 21.008 16.728C21.288 16.928 21.504 17.176 21.656 17.472C21.808 17.76 21.884 18.088 21.884 18.456C21.884 18.88 21.812 19.252 21.668 19.572C21.524 19.884 21.316 20.148 21.044 20.364C20.772 20.58 20.452 20.74 20.084 20.844C19.724 20.948 19.324 21 18.884 21H15.056ZM16.976 19.296H18.812C19.036 19.296 19.224 19.26 19.376 19.188C19.536 19.116 19.66 19.012 19.748 18.876C19.836 18.732 19.88 18.56 19.88 18.36C19.88 18.176 19.832 18.02 19.736 17.892C19.648 17.764 19.52 17.668 19.352 17.604C19.184 17.532 18.984 17.496 18.752 17.496H16.976V19.296ZM16.976 15.972H18.476C18.684 15.972 18.86 15.94 19.004 15.876C19.156 15.804 19.268 15.708 19.34 15.588C19.42 15.46 19.46 15.308 19.46 15.132C19.46 14.876 19.372 14.676 19.196 14.532C19.02 14.38 18.756 14.304 18.404 14.304H16.976V15.972Z" fill="#191919"/>
<path d="M11.1479 20.1559L6.49194 17.4919V16.3279L11.1479 13.6639L11.9399 15.1879L7.85994 17.3239V16.4959L11.9399 18.6439L11.1479 20.1559Z" fill="#191919"/>
<path d="M28.3967 26.1561L27.6167 24.6441L31.6847 22.4961V23.3241L27.6167 21.1881L28.3967 19.6641L33.0527 22.3281V23.4921L28.3967 26.1561Z" fill="#191919"/>
<path d="M20.0959 27.704L25.0879 17.6H26.9959L22.0279 27.704H20.0959Z" fill="#191919"/>
<path fill-rule="evenodd" clip-rule="evenodd" d="M162 28.5H48V27H162V28.5Z" fill="white"/>
<path d="M157.893 24.12C157.245 24.12 156.649 24.012 156.105 23.796C155.561 23.58 155.089 23.276 154.689 22.884C154.289 22.492 153.977 22.032 153.753 21.504C153.537 20.968 153.429 20.384 153.429 19.752C153.429 19.112 153.537 18.528 153.753 18C153.977 17.472 154.289 17.012 154.689 16.62C155.089 16.228 155.561 15.924 156.105 15.708C156.649 15.492 157.245 15.384 157.893 15.384C158.541 15.384 159.133 15.492 159.669 15.708C160.213 15.924 160.685 16.228 161.085 16.62C161.493 17.012 161.805 17.472 162.021 18C162.237 18.528 162.345 19.108 162.345 19.74C162.345 20.38 162.237 20.968 162.021 21.504C161.805 22.032 161.493 22.492 161.085 22.884C160.685 23.276 160.213 23.58 159.669 23.796C159.133 24.012 158.541 24.12 157.893 24.12ZM157.893 21.912C158.181 21.912 158.449 21.86 158.697 21.756C158.945 21.652 159.161 21.504 159.345 21.312C159.529 21.112 159.669 20.88 159.765 20.616C159.869 20.352 159.921 20.064 159.921 19.752C159.921 19.44 159.869 19.152 159.765 18.888C159.669 18.624 159.529 18.396 159.345 18.204C159.161 18.004 158.945 17.852 158.697 17.748C158.449 17.644 158.181 17.592 157.893 17.592C157.597 17.592 157.325 17.644 157.077 17.748C156.829 17.852 156.613 18.004 156.429 18.204C156.245 18.396 156.101 18.624 155.997 18.888C155.901 19.144 155.853 19.432 155.853 19.752C155.853 20.064 155.901 20.352 155.997 20.616C156.101 20.88 156.245 21.112 156.429 21.312C156.613 21.504 156.829 21.652 157.077 21.756C157.325 21.86 157.597 21.912 157.893 21.912Z" fill="white"/>
<path d="M146.923 24V22.056H148.387V17.544H146.923V15.6H152.215V17.544H150.763V22.056H152.215V24H146.923Z" fill="white"/>
<path d="M137.808 24V15.6H141.432C142.064 15.6 142.64 15.704 143.16 15.912C143.68 16.12 144.132 16.412 144.516 16.788C144.9 17.156 145.196 17.596 145.404 18.108C145.612 18.62 145.716 19.184 145.716 19.8C145.716 20.408 145.612 20.972 145.404 21.492C145.196 22.004 144.9 22.448 144.516 22.824C144.132 23.192 143.68 23.48 143.16 23.688C142.64 23.896 142.064 24 141.432 24H137.808ZM140.184 22.488L139.812 21.948H141.372C141.668 21.948 141.932 21.896 142.164 21.792C142.404 21.688 142.608 21.544 142.776 21.36C142.944 21.168 143.076 20.94 143.172 20.676C143.268 20.412 143.316 20.12 143.316 19.8C143.316 19.48 143.268 19.188 143.172 18.924C143.076 18.66 142.94 18.436 142.764 18.252C142.596 18.06 142.396 17.912 142.164 17.808C141.932 17.704 141.668 17.652 141.372 17.652H139.776L140.184 17.136V22.488Z" fill="white"/>
<path d="M132.14 24.072C131.428 24.072 130.792 23.932 130.232 23.652C129.68 23.364 129.244 22.972 128.924 22.476C128.612 21.98 128.456 21.412 128.456 20.772V15.6H130.856V20.664C130.856 20.928 130.912 21.164 131.024 21.372C131.136 21.572 131.288 21.732 131.48 21.852C131.68 21.964 131.9 22.02 132.14 22.02C132.404 22.02 132.636 21.964 132.836 21.852C133.036 21.732 133.196 21.572 133.316 21.372C133.436 21.164 133.496 20.928 133.496 20.664V15.6H135.824V20.772C135.824 21.412 135.664 21.98 135.344 22.476C135.032 22.972 134.6 23.364 134.048 23.652C133.496 23.932 132.86 24.072 132.14 24.072Z" fill="white"/>
<path d="M122.103 24V17.652H119.559V15.6H127.107V17.652H124.479V24H122.103Z" fill="white"/>
<path d="M115.411 24.12C114.811 24.12 114.275 24.052 113.803 23.916C113.339 23.78 112.927 23.584 112.567 23.328C112.215 23.072 111.899 22.772 111.619 22.428L113.011 20.856C113.411 21.376 113.823 21.724 114.247 21.9C114.671 22.068 115.083 22.152 115.483 22.152C115.659 22.152 115.819 22.136 115.963 22.104C116.107 22.064 116.215 22.004 116.287 21.924C116.367 21.836 116.407 21.728 116.407 21.6C116.407 21.488 116.375 21.392 116.311 21.312C116.247 21.232 116.159 21.164 116.047 21.108C115.935 21.044 115.811 20.988 115.675 20.94C115.539 20.892 115.403 20.856 115.267 20.832C115.131 20.8 114.999 20.768 114.871 20.736C114.399 20.632 113.987 20.5 113.635 20.34C113.283 20.18 112.987 19.992 112.747 19.776C112.515 19.552 112.339 19.296 112.219 19.008C112.107 18.72 112.051 18.396 112.051 18.036C112.051 17.644 112.143 17.284 112.327 16.956C112.511 16.628 112.755 16.348 113.059 16.116C113.363 15.876 113.711 15.696 114.103 15.576C114.503 15.448 114.919 15.384 115.351 15.384C115.943 15.384 116.447 15.444 116.863 15.564C117.279 15.676 117.627 15.84 117.907 16.056C118.195 16.272 118.443 16.524 118.651 16.812L117.235 18.18C117.067 17.996 116.883 17.844 116.683 17.724C116.491 17.604 116.291 17.516 116.083 17.46C115.875 17.396 115.663 17.364 115.447 17.364C115.247 17.364 115.071 17.384 114.919 17.424C114.775 17.464 114.663 17.524 114.583 17.604C114.503 17.676 114.463 17.776 114.463 17.904C114.463 18.016 114.507 18.116 114.595 18.204C114.683 18.284 114.795 18.352 114.931 18.408C115.067 18.464 115.211 18.512 115.363 18.552C115.523 18.584 115.667 18.612 115.795 18.636C116.235 18.724 116.635 18.84 116.995 18.984C117.363 19.12 117.683 19.296 117.955 19.512C118.227 19.72 118.435 19.976 118.579 20.28C118.723 20.584 118.795 20.94 118.795 21.348C118.795 21.948 118.643 22.456 118.339 22.872C118.043 23.28 117.639 23.592 117.127 23.808C116.623 24.016 116.051 24.12 115.411 24.12Z" fill="white"/>
<path d="M102.979 24.12C102.283 24.12 101.659 24.012 101.107 23.796C100.555 23.58 100.083 23.276 99.6914 22.884C99.3074 22.492 99.0154 22.028 98.8154 21.492C98.6154 20.956 98.5154 20.376 98.5154 19.752C98.5154 19.12 98.6234 18.54 98.8394 18.012C99.0634 17.476 99.3834 17.012 99.7994 16.62C100.215 16.228 100.703 15.924 101.263 15.708C101.831 15.492 102.459 15.384 103.147 15.384C103.619 15.384 104.063 15.444 104.479 15.564C104.903 15.684 105.283 15.848 105.619 16.056C105.955 16.264 106.243 16.496 106.483 16.752L105.067 18.264C104.891 18.096 104.703 17.952 104.503 17.832C104.311 17.712 104.099 17.616 103.867 17.544C103.643 17.472 103.391 17.436 103.111 17.436C102.799 17.436 102.511 17.496 102.247 17.616C101.991 17.728 101.767 17.888 101.575 18.096C101.383 18.296 101.231 18.54 101.119 18.828C101.015 19.108 100.963 19.416 100.963 19.752C100.963 20.08 101.019 20.388 101.131 20.676C101.243 20.956 101.399 21.2 101.599 21.408C101.799 21.616 102.035 21.78 102.307 21.9C102.587 22.012 102.887 22.068 103.207 22.068C103.431 22.068 103.639 22.032 103.831 21.96C104.023 21.888 104.187 21.792 104.323 21.672C104.467 21.544 104.579 21.396 104.659 21.228C104.739 21.052 104.779 20.864 104.779 20.664V20.328L105.091 20.832H102.883V19.104H106.939C106.947 19.192 106.955 19.328 106.963 19.512C106.979 19.688 106.987 19.864 106.987 20.04C106.995 20.216 106.999 20.34 106.999 20.412C106.999 20.948 106.899 21.444 106.699 21.9C106.499 22.356 106.219 22.748 105.859 23.076C105.499 23.404 105.075 23.66 104.587 23.844C104.099 24.028 103.563 24.12 102.979 24.12Z" fill="white"/>
<path d="M89.2577 24V15.6H91.3817L95.4617 21.192L94.9697 21.072C94.9297 20.776 94.8937 20.508 94.8617 20.268C94.8377 20.028 94.8137 19.8 94.7897 19.584C94.7737 19.368 94.7577 19.152 94.7417 18.936C94.7337 18.72 94.7297 18.484 94.7297 18.228C94.7297 17.972 94.7297 17.684 94.7297 17.364V15.6H97.0217V24H94.8737L90.4817 18L91.3097 18.204C91.3497 18.532 91.3817 18.816 91.4057 19.056C91.4377 19.296 91.4617 19.512 91.4777 19.704C91.4937 19.896 91.5057 20.08 91.5137 20.256C91.5297 20.432 91.5377 20.62 91.5377 20.82C91.5457 21.02 91.5497 21.248 91.5497 21.504V24H89.2577Z" fill="white"/>
<path d="M82.0715 24V22.056H83.5355V17.544H82.0715V15.6H87.3635V17.544H85.9115V22.056H87.3635V24H82.0715Z" fill="white"/>
<path d="M74.9533 21.588L74.2093 19.74L78.2773 15.6H81.0133L74.9533 21.588ZM73.2733 24V15.6H75.6493V24H73.2733ZM78.5893 24L75.5173 19.968L77.0773 18.624L81.3133 24H78.5893Z" fill="white"/>
<path d="M64.8124 24V15.6H68.6884C69.2564 15.6 69.7644 15.716 70.2124 15.948C70.6604 16.18 71.0084 16.496 71.2564 16.896C71.5124 17.296 71.6404 17.756 71.6404 18.276C71.6404 18.836 71.5124 19.332 71.2564 19.764C71.0084 20.196 70.6604 20.536 70.2124 20.784C69.7644 21.024 69.2564 21.144 68.6884 21.144H67.0444V24H64.8124ZM69.3124 24L67.1764 20.208L69.6124 19.908L71.9884 24H69.3124ZM67.0444 19.44H68.3644C68.5724 19.44 68.7444 19.4 68.8804 19.32C69.0244 19.232 69.1324 19.116 69.2044 18.972C69.2844 18.82 69.3244 18.644 69.3244 18.444C69.3244 18.252 69.2844 18.088 69.2044 17.952C69.1244 17.808 69.0044 17.7 68.8444 17.628C68.6924 17.548 68.5004 17.508 68.2684 17.508H67.0444V19.44Z" fill="white"/>
<path d="M55.3638 24L58.7118 15.6H60.6318L63.9558 24H61.5918L60.1518 20.1C60.0718 19.884 59.9998 19.684 59.9358 19.5C59.8718 19.316 59.8118 19.136 59.7558 18.96C59.6998 18.784 59.6438 18.604 59.5878 18.42C59.5398 18.236 59.4958 18.036 59.4558 17.82L59.8398 17.808C59.7918 18.04 59.7398 18.248 59.6838 18.432C59.6358 18.616 59.5838 18.792 59.5278 18.96C59.4718 19.128 59.4078 19.304 59.3358 19.488C59.2718 19.672 59.1998 19.876 59.1198 20.1L57.6798 24H55.3638ZM56.9958 22.608L57.7038 20.928H61.5918L62.2518 22.608H56.9958Z" fill="white"/>
<path d="M47.996 24V15.6H51.8C52.392 15.6 52.892 15.684 53.3 15.852C53.716 16.02 54.032 16.256 54.248 16.56C54.464 16.864 54.572 17.224 54.572 17.64C54.572 18.136 54.456 18.548 54.224 18.876C53.992 19.204 53.656 19.424 53.216 19.536L53.18 19.308C53.548 19.396 53.868 19.54 54.14 19.74C54.42 19.932 54.636 20.172 54.788 20.46C54.94 20.74 55.016 21.064 55.016 21.432C55.016 21.864 54.936 22.24 54.776 22.56C54.624 22.88 54.404 23.148 54.116 23.364C53.836 23.58 53.508 23.74 53.132 23.844C52.764 23.948 52.36 24 51.92 24H47.996ZM50.216 22.092H51.848C52.032 22.092 52.184 22.064 52.304 22.008C52.432 21.944 52.528 21.852 52.592 21.732C52.664 21.612 52.7 21.468 52.7 21.3C52.7 21.14 52.664 21.008 52.592 20.904C52.52 20.8 52.416 20.72 52.28 20.664C52.144 20.6 51.98 20.568 51.788 20.568H50.216V22.092ZM50.216 18.924H51.416C51.608 18.924 51.768 18.896 51.896 18.84C52.024 18.784 52.12 18.704 52.184 18.6C52.248 18.488 52.28 18.36 52.28 18.216C52.28 18 52.208 17.828 52.064 17.7C51.92 17.572 51.692 17.508 51.38 17.508H50.216V18.924Z" fill="white"/>
</svg>
